<svg width="250" height="230" viewBox="0 0 250 230" fill="none" xmlns="http://www.w3.org/2000/svg">
<path d="M109.334 230L135.042 219.812L159.761 198.643C160.858 197.699 160.545 196 159.21 195.693L137.533 190.688L109.328 230H109.334Z" fill="#E5DCB7"/>
<path d="M178.195 197.532L213.696 167.038L185.053 90.9696L178.195 197.532Z" fill="#E5DCB7"/>
<path d="M217.422 43.3901C236.98 66.2796 269.087 111.94 235.089 151.344C198.08 194.232 145.783 141.765 110.887 153.798C110.887 153.798 68.9981 178.963 26.8932 130.283C-15.2064 81.6021 19.4784 10.5984 93.7498 0.890349C129.17 -3.73716 188.525 9.56289 217.427 43.3847L217.422 43.3901Z" fill="#FFF5CB"/>
<path d="M33.4036 69.0133C34.7915 69.0133 35.9166 67.8904 35.9166 66.5053C35.9166 65.1203 34.7915 63.9974 33.4036 63.9974C32.0157 63.9974 30.8906 65.1203 30.8906 66.5053C30.8906 67.8904 32.0157 69.0133 33.4036 69.0133Z" stroke="#CCA321" stroke-width="0.5" stroke-miterlimit="10"/>
<path d="M140.091 25.1705C141.479 25.1705 142.604 24.0477 142.604 22.6626C142.604 21.2775 141.479 20.1547 140.091 20.1547C138.703 20.1547 137.578 21.2775 137.578 22.6626C137.578 24.0477 138.703 25.1705 140.091 25.1705Z" stroke="#CCA321" stroke-width="0.5" stroke-miterlimit="10"/>
<path d="M213.692 168.159L109.302 147.406L70.4453 62.1581L201.067 68.5223L213.692 168.159Z" fill="#CCA321"/>
<path d="M178.286 198.654L33.5859 171.239L55.268 43.5835L199.509 68.3984L178.286 198.654Z" fill="#FFD631"/>
<path d="M187.766 73.3386L64.1373 51.215L63.0024 57.9891H62.9916L45.7734 156.089L169.873 180.224L171.007 173.45H171.024L187.766 73.3386Z" fill="#FFF5CB"/>
<path d="M179.642 77.6965L56.0072 55.5729L54.8777 62.3469H54.8615L38.4648 160.377L161.748 184.588L162.883 177.808H162.894L179.642 77.6965Z" fill="white"/>
<path d="M79.941 66.1493C80.1626 68.1718 78.7574 70.108 76.8065 70.4802C74.8555 70.8469 73.0883 69.5094 72.8667 67.4868C72.6452 65.4643 74.0503 63.5281 76.0012 63.156C77.9522 62.7892 79.7194 64.1268 79.941 66.1493Z" fill="#FFD631"/>
<path d="M102.277 69.9948C102.498 72.0173 101.093 73.9535 99.1424 74.3256C97.1915 74.6924 95.4243 73.3548 95.2027 71.3323C94.9811 69.3098 96.3862 67.3736 98.3372 67.0014C100.288 66.6347 102.055 67.9722 102.277 69.9948Z" fill="#FFD631"/>
<path d="M124.621 73.8402C124.842 75.8628 123.437 77.799 121.486 78.1711C119.535 78.5379 117.768 77.2003 117.546 75.1778C117.325 73.1553 118.73 71.2191 120.681 70.8469C122.632 70.4802 124.399 71.8177 124.621 73.8402Z" fill="#FFD631"/>
<path d="M146.964 77.6857C147.186 79.7082 145.781 81.6444 143.83 82.0166C141.879 82.3833 140.112 81.0458 139.89 79.0233C139.669 77.0007 141.074 75.0645 143.025 74.6924C144.976 74.3256 146.743 75.6632 146.964 77.6857Z" fill="#FFD631"/>
<path d="M169.3 81.5312C169.522 83.5537 168.117 85.4899 166.166 85.8621C164.215 86.2288 162.448 84.8912 162.226 82.8687C162.005 80.8462 163.41 78.91 165.361 78.5379C167.312 78.1711 169.079 79.5087 169.3 81.5312Z" fill="#FFD631"/>
<path d="M76.4134 69.0564C72.2412 66.473 70.1444 59.9254 71.5711 52.4124C73.3816 42.8877 80.1694 35.4179 86.7356 35.7307C92.3236 35.995 95.9499 41.8145 95.7878 49.4137" stroke="#7F6826" stroke-width="3" stroke-linecap="round" stroke-linejoin="round"/>
<path d="M99.7102 73.0098C95.5381 70.4264 93.4412 63.8788 94.868 56.3658C96.6784 46.8412 103.466 39.3713 110.032 39.6842C115.621 39.9484 119.247 45.7679 119.085 53.3671" stroke="#7F6826" stroke-width="3" stroke-linecap="round" stroke-linejoin="round"/>
<path d="M122.124 77.1681C117.952 74.5847 115.855 68.0371 117.282 60.5242C119.092 50.9995 125.88 43.5297 132.447 43.8425C138.035 44.1067 141.661 49.9262 141.499 57.5254" stroke="#7F6826" stroke-width="3" stroke-linecap="round" stroke-linejoin="round"/>
<path d="M143.398 80.4688C139.226 77.8854 137.129 71.3378 138.555 63.8248C140.366 54.3002 147.154 46.8303 153.72 47.1431C159.308 47.4074 162.934 53.2269 162.772 60.8261" stroke="#7F6826" stroke-width="3" stroke-linecap="round" stroke-linejoin="round"/>
<path d="M166.105 84.1578C161.933 81.5744 159.836 75.0269 161.263 67.5139C163.073 57.9892 169.861 50.5194 176.427 50.8322C182.015 51.0965 185.641 56.9159 185.479 64.5152" stroke="#7F6826" stroke-width="3" stroke-linecap="round" stroke-linejoin="round"/>
<path d="M68.8191 90.3278L56.1406 87.9223L57.9132 77.648L70.5863 80.048L68.8191 90.3278Z" fill="#FFA800"/>
<path d="M85.2723 93.4453L72.5938 91.0452L74.3664 80.7654L87.0395 83.1709L85.2723 93.4453Z" fill="#FFA800"/>
<path d="M101.733 96.5681L89.0547 94.1626L90.8273 83.8883L103.5 86.2883L101.733 96.5681Z" fill="#FFA800"/>
<path d="M118.186 99.6853L105.508 97.2798L107.28 87.0055L119.954 89.4109L118.186 99.6853Z" fill="#FFA800"/>
<path d="M134.642 102.803L121.969 100.403L123.736 90.1283L136.409 92.5283L134.642 102.803Z" fill="#FFA800"/>
<path d="M151.099 105.925L138.426 103.52L140.193 93.2455L152.866 95.6509L151.099 105.925Z" fill="#FFA800"/>
<path d="M167.556 109.043L154.883 106.643L156.65 96.3686L169.323 98.7686L167.556 109.043Z" fill="#FFA800"/>
<path d="M65.7683 110.44L53.0898 108.04L54.8571 97.7654L67.5356 100.165L65.7683 110.44Z" fill="#FFEBC7"/>
<path d="M82.2254 113.562L69.5469 111.157L71.3195 100.883L83.9926 103.288L82.2254 113.562Z" fill="#FFEBC7"/>
<path d="M98.6785 116.68L86 114.28L87.7726 104L100.446 106.405L98.6785 116.68Z" fill="#FFEBC7"/>
<path d="M115.139 119.803L102.461 117.397L104.234 107.123L116.907 109.523L115.139 119.803Z" fill="#FFEBC7"/>
<path d="M131.593 122.92L118.914 120.52L120.687 110.24L133.36 112.646L131.593 122.92Z" fill="#FFEBC7"/>
<path d="M148.05 126.043L135.371 123.637L137.144 113.363L149.817 115.763L148.05 126.043Z" fill="#FFEBC7"/>
<path d="M164.507 129.16L151.828 126.755L153.601 116.48L166.274 118.886L164.507 129.16Z" fill="#FFEBC7"/>
<path d="M62.7161 130.557L50.043 128.157L51.8102 117.877L64.4887 120.283L62.7161 130.557Z" fill="#FFEBC7"/>
<path d="M79.1731 133.674L66.5 131.274L68.2672 121L80.9457 123.4L79.1731 133.674Z" fill="#FFEBC7"/>
<path d="M95.6262 136.797L82.9531 134.392L84.7203 124.117L97.3988 126.523L95.6262 136.797Z" fill="#FFEBC7"/>
<path d="M112.083 139.914L99.4102 137.514L101.177 127.24L113.856 129.64L112.083 139.914Z" fill="#FFEBC7"/>
<path d="M128.546 143.037L115.867 140.632L117.634 130.357L130.313 132.763L128.546 143.037Z" fill="#FFEBC7"/>
<path d="M145.003 146.154L132.324 143.754L134.091 133.475L146.77 135.88L145.003 146.154Z" fill="#FFEBC7"/>
<path d="M161.46 149.277L148.781 146.872L150.548 136.597L163.227 138.998L161.46 149.277Z" fill="#FFEBC7"/>
<path d="M59.6653 150.674L46.9922 148.269L48.7594 137.994L61.4379 140.4L59.6653 150.674Z" fill="#FFEBC7"/>
<path d="M76.1184 153.791L63.4453 151.391L65.2125 141.112L77.891 143.517L76.1184 153.791Z" fill="#FFEBC7"/>
<path d="M92.5793 156.914L79.9062 154.509L81.6735 144.234L94.352 146.634L92.5793 156.914Z" fill="#FFEBC7"/>
<path d="M109.032 160.032L96.3594 157.626L98.1266 147.352L110.805 149.757L109.032 160.032Z" fill="#FFEBC7"/>
<path d="M125.49 163.149L112.816 160.749L114.584 150.475L127.262 152.875L125.49 163.149Z" fill="#FFEBC7"/>
<path d="M141.947 166.272L129.273 163.866L131.041 153.592L143.719 155.997L141.947 166.272Z" fill="#FFEBC7"/>
<path d="M158.4 169.389L145.727 166.989L147.494 156.715L160.172 159.115L158.4 169.389Z" fill="#FFEBC7"/>
<path opacity="0.59" d="M74.5966 145.022C87.4906 145.022 97.9432 134.59 97.9432 121.723C97.9432 108.855 87.4906 98.4232 74.5966 98.4232C61.7026 98.4232 51.25 108.855 51.25 121.723C51.25 134.59 61.7026 145.022 74.5966 145.022Z" fill="#FFEBC7"/>
<path d="M35.0771 137.978L34.969 138.048L0.224707 160.188C-0.553513 160.684 0.75433 164.115 3.14844 167.858C5.54255 171.601 8.10959 174.227 8.88781 173.731C8.89862 173.726 8.90402 173.715 8.91483 173.709L43.6375 151.586L43.7456 151.516C43.9239 151.402 42.1297 148.28 39.7356 144.542C37.3415 140.804 35.2608 137.865 35.0825 137.978H35.0771Z" fill="#FFD631"/>
<path d="M43.8131 151.422C44.7942 150.797 43.6558 147.268 41.2704 143.54C38.885 139.812 36.1559 137.296 35.1748 137.922C34.1938 138.547 35.3322 142.076 37.7176 145.804C40.103 149.532 42.832 152.048 43.8131 151.422Z" fill="#E5B428"/>
<path d="M52.9985 130.665L52.9498 130.697L37.2827 140.68C36.9315 140.901 37.7205 142.762 39.0445 144.828C40.3686 146.894 41.7251 148.387 42.0764 148.166C42.0764 148.166 42.0818 148.161 42.0872 148.156L57.738 138.183L57.7867 138.151C57.8677 138.102 56.8571 136.382 55.5385 134.316C54.2144 132.251 53.0795 130.616 52.9985 130.665Z" fill="#FFD631"/>
<path d="M57.8157 138.106C58.2585 137.824 57.5483 135.924 56.2295 133.863C54.9107 131.802 53.4827 130.36 53.0399 130.642C52.5972 130.924 53.3074 132.824 54.6262 134.885C55.945 136.946 57.373 138.388 57.8157 138.106Z" fill="#FFD631"/>
<path opacity="0.26" d="M48.5 109.027C48.5 109.027 48.527 108.973 48.5378 108.951C48.527 108.978 48.5108 109.005 48.5 109.027Z" fill="#E5B428"/>
<path d="M77.7437 93.661C65.5138 91.6331 53.8297 98.0781 48.6523 108.714C50.6249 104.755 53.4946 101.4 56.948 98.8871C61.8551 96.2282 67.5998 95.1172 73.4635 96.0934C87.7687 98.4665 97.3776 112.311 94.9294 127.019C93.6972 134.419 89.6494 140.621 84.11 144.661C79.2029 147.32 73.4581 148.431 67.5944 147.454C66.5514 147.282 65.5354 147.045 64.5464 146.753C65.8921 147.201 67.2918 147.552 68.7348 147.789C83.6398 150.259 97.7397 140.146 100.226 125.201C102.717 110.251 92.6542 96.1311 77.7491 93.6556L77.7437 93.661Z" fill="#E5B428"/>
<path opacity="0.26" d="M48.5391 108.946C48.5769 108.865 48.6147 108.79 48.6526 108.709C48.6147 108.784 48.5769 108.865 48.5391 108.946Z" fill="#E5B428"/>
<path opacity="0.26" d="M46.2528 116.249C46.6797 113.687 47.4471 111.265 48.5009 109.021C47.3823 111.335 46.5662 113.854 46.1231 116.524C43.8532 130.158 51.9489 143.054 64.5409 146.753C51.9921 142.574 44.0046 129.748 46.2528 116.249Z" fill="#E5B428"/>
<path d="M84.4612 137.903C80.4404 140.071 75.7387 140.972 70.9289 140.173C59.2015 138.226 51.3166 126.927 53.3162 114.938C53.8512 111.739 55.0348 108.822 56.7047 106.287C53.8188 109.377 51.776 113.347 51.0248 117.861C49.0252 129.856 56.9101 141.155 68.6374 143.097C73.4473 143.895 78.1544 142.994 82.1698 140.826C84.3045 139.278 86.1582 137.336 87.639 135.093C86.6716 136.134 85.6069 137.072 84.4612 137.903Z" fill="#E5B428"/>
<path d="M73.7731 95.9639C68.2661 95.0524 62.8672 95.9423 58.1547 98.2183C57.4359 98.5635 56.7604 98.9949 56.1335 99.4911C51.0372 103.547 47.3461 109.485 46.1787 116.486C43.7144 131.269 53.4367 145.195 67.8824 147.589C73.3894 148.501 78.7883 147.611 83.5009 145.335C84.2196 144.99 84.8952 144.558 85.5221 144.062C90.6184 140.006 94.3095 134.068 95.4768 127.067C97.9412 112.284 88.2188 98.3585 73.7731 95.9639ZM82.7821 139.316C82.1228 139.855 81.3932 140.314 80.6204 140.675C76.94 142.379 72.7517 143.037 68.4823 142.331C56.9765 140.421 49.2376 129.333 51.1993 117.564C52.1073 112.106 54.9445 107.457 58.8734 104.237C59.5328 103.698 60.2624 103.24 61.0352 102.878C64.7155 101.174 68.9038 100.516 73.1732 101.222C84.679 103.132 92.418 114.22 90.4562 125.989C89.5483 131.447 86.711 136.096 82.7821 139.316Z" fill="#FFD631"/>
<path d="M229.368 91.3483C229.59 89.9811 228.66 88.6928 227.29 88.4709C225.92 88.249 224.629 89.1774 224.407 90.5446C224.184 91.9118 225.114 93.2 226.484 93.4219C227.854 93.6439 229.145 92.7155 229.368 91.3483Z" stroke="#CCA321" stroke-width="0.5" stroke-miterlimit="10"/>
<path d="M109.332 230L65.7625 221.705L65.6328 214.904L97.7506 195.919L138.813 199.544L138.823 205.848L109.332 230Z" fill="#FFA800"/>
<path d="M109.33 230L109.492 222.913L102.164 199.404L139.421 199.058L139.524 206.248L109.33 230Z" fill="#D88A00"/>
<path d="M109.494 222.913L65.6328 214.904L95.8969 192.548L139.423 199.058L109.494 222.913Z" fill="#CC8200"/>
<path d="M109.93 221.705L66.2415 213.323L66.1172 206.517L93.9115 191.906L139.394 191.923L139.119 198.071L109.93 221.705Z" fill="#6D76CC"/>
<path d="M109.93 221.705L109.979 214.526L101.797 191.885L139.411 191.804L139.443 198.201L109.93 221.705Z" fill="#595DAA"/>
<path d="M109.979 214.527L66.1172 206.517L95.522 185.03L139.41 191.804L109.979 214.527Z" fill="#405AB3"/>
<path d="M110.049 213.318L66.7337 204.824L66.6094 198.023L93.5336 184.286H139.324L139.286 191.027L110.049 213.318Z" fill="#FFEA92"/>
<path d="M110.053 213.318L109.999 205.946L101.422 184.264L139.322 184.167L139.29 191.028L110.053 213.318Z" fill="#FFE164"/>
<path d="M139.319 184.167L109.995 205.945L66.6094 198.023L95.1495 177.409" fill="#FFF5CB"/>
<path d="M123.38 196.006L139.318 184.173L134.038 183.38C121.019 198.772 127.261 188.989 123.375 196.011L123.38 196.006Z" fill="#CCA321"/>
<path d="M123.384 196.005C123.384 196.005 134.906 187.64 135.047 178.817C130.81 180.677 113.808 180.197 110.16 179.75L123.384 196.011V196.005Z" fill="#FFF5CB"/>
</svg>
