<svg width="250" height="230" viewBox="0 0 250 230" fill="none" xmlns="http://www.w3.org/2000/svg">
<path d="M176.074 205.433L207.06 178.857L182.062 112.552L176.074 205.433Z" fill="#E5DCB7"/>
<path d="M89.3125 215L109.19 207.131L128.304 190.786C129.153 190.06 128.908 188.746 127.88 188.508L111.12 184.642L89.3125 214.996V215Z" fill="#E5DCB7"/>
<path d="M217.592 43.1031C237.049 65.8425 268.991 111.208 235.165 150.351C198.348 192.956 146.322 140.836 111.611 152.788C111.611 152.788 69.9421 177.786 28.0543 129.427C-13.8302 81.0651 20.6785 10.5265 94.5608 0.884702C129.798 -3.7133 188.84 9.50149 217.596 43.1031H217.592Z" fill="#FFF5CB"/>
<path d="M22.9555 69.614C24.3332 69.614 25.45 68.5009 25.45 67.1279C25.45 65.7549 24.3332 64.6418 22.9555 64.6418C21.5778 64.6418 20.4609 65.7549 20.4609 67.1279C20.4609 68.5009 21.5778 69.614 22.9555 69.614Z" stroke="#CCA321" stroke-width="0.5" stroke-miterlimit="10"/>
<path d="M153.061 24.2035C154.439 24.2035 155.555 23.0905 155.555 21.7174C155.555 20.3444 154.439 19.2313 153.061 19.2313C151.683 19.2313 150.566 20.3444 150.566 21.7174C150.566 23.0905 151.683 24.2035 153.061 24.2035Z" stroke="#CCA321" stroke-width="0.5" stroke-miterlimit="10"/>
<path d="M207.058 179.833L115.95 161.74L82.0352 87.4365L196.039 92.9847L207.058 179.833Z" fill="#CCA321"/>
<path d="M176.156 206.412L49.8594 182.514L68.7838 71.2476L194.676 92.8774L176.156 206.412Z" fill="#FFD631"/>
<path d="M184.433 97.1828L76.525 77.8991L75.5357 83.8053H75.5227L60.5 169.309L168.813 190.35L169.802 184.444H169.815L184.433 97.1828Z" fill="#FFF5CB"/>
<path d="M177.338 100.98L69.4304 81.6968L68.4411 87.6062L68.4313 87.6029L54.1172 173.048L161.718 194.151L162.707 188.242L162.72 188.245L177.338 100.98Z" fill="white"/>
<path d="M90.3192 90.9153C90.5119 92.6758 89.2875 94.3679 87.5831 94.6868C85.8787 95.0089 84.3409 93.8407 84.1449 92.0803C83.9523 90.3198 85.1767 88.6277 86.8811 88.3088C88.5855 87.9866 90.1233 89.1549 90.3192 90.9153Z" fill="#FFD631"/>
<path d="M109.82 94.2703C110.012 96.0308 108.788 97.7229 107.084 98.0418C105.379 98.364 103.841 97.1958 103.646 95.4353C103.45 93.6748 104.677 91.9827 106.382 91.6638C108.086 91.3449 109.624 92.5099 109.82 94.2703Z" fill="#FFD631"/>
<path d="M129.315 97.622C129.508 99.3824 128.284 101.075 126.579 101.393C124.875 101.716 123.337 100.547 123.141 98.7869C122.948 97.0265 124.173 95.3344 125.877 95.0155C127.582 94.6933 129.119 95.8615 129.315 97.622Z" fill="#FFD631"/>
<path d="M148.815 100.974C149.008 102.734 147.784 104.426 146.079 104.745C144.375 105.067 142.837 103.899 142.641 102.139C142.448 100.378 143.673 98.6862 145.377 98.3673C147.082 98.0451 148.619 99.2133 148.815 100.974Z" fill="#FFD631"/>
<path d="M168.311 104.325C168.504 106.086 167.28 107.778 165.575 108.097C163.871 108.419 162.333 107.251 162.137 105.49C161.944 103.73 163.169 102.037 164.873 101.719C166.578 101.396 168.116 102.565 168.311 104.325Z" fill="#FFD631"/>
<path d="M87.2441 93.4535C83.6036 91.2016 81.7719 85.494 83.0191 78.9468C84.5994 70.6457 90.5255 64.1343 96.2558 64.4076C101.134 64.6386 104.301 69.7117 104.157 76.337" stroke="#7F6826" stroke-width="3" stroke-linecap="round" stroke-linejoin="round"/>
<path d="M107.576 96.8962C103.936 94.6444 102.104 88.9367 103.351 82.3895C104.931 74.0884 110.858 67.577 116.588 67.8503C121.466 68.0814 124.633 73.1545 124.489 79.7798" stroke="#7F6826" stroke-width="3" stroke-linecap="round" stroke-linejoin="round"/>
<path d="M127.135 100.521C123.494 98.2693 121.662 92.5617 122.91 86.0145C124.49 77.7133 130.416 71.2019 136.146 71.4753C141.024 71.7063 144.192 76.7794 144.048 83.4047" stroke="#7F6826" stroke-width="3" stroke-linecap="round" stroke-linejoin="round"/>
<path d="M145.697 103.398C142.057 101.146 140.225 95.4384 141.472 88.8912C143.053 80.5901 148.979 74.0786 154.709 74.352C159.587 74.583 162.754 79.6561 162.61 86.2814" stroke="#7F6826" stroke-width="3" stroke-linecap="round" stroke-linejoin="round"/>
<path d="M165.521 106.613C161.881 104.361 160.049 98.6535 161.296 92.1063C162.877 83.8051 168.803 77.2937 174.533 77.5671C179.411 77.7981 182.578 82.8712 182.435 89.4965" stroke="#7F6826" stroke-width="3" stroke-linecap="round" stroke-linejoin="round"/>
<path d="M80.6129 111.992L69.5508 109.896L71.0952 100.941L82.1573 103.034L80.6129 111.992Z" fill="#FFA800"/>
<path d="M94.9762 114.709L83.9141 112.617L85.4585 103.658L96.5206 105.754L94.9762 114.709Z" fill="#FFA800"/>
<path d="M109.343 117.429L98.2812 115.334L99.8256 106.379L110.888 108.474L109.343 117.429Z" fill="#FFA800"/>
<path d="M123.707 120.15L112.645 118.055L114.189 109.099L125.251 111.192L123.707 120.15Z" fill="#FFA800"/>
<path d="M138.066 122.867L127.004 120.775L128.548 111.816L139.61 113.912L138.066 122.867Z" fill="#FFA800"/>
<path d="M152.425 125.587L141.363 123.492L142.908 114.537L153.97 116.632L152.425 125.587Z" fill="#FFA800"/>
<path d="M166.793 128.305L155.73 126.212L157.275 117.254L168.337 119.349L166.793 128.305Z" fill="#FFA800"/>
<path d="M77.9527 129.525L66.8906 127.429L68.435 118.474L79.4971 120.567L77.9527 129.525Z" fill="#FFEBC7"/>
<path d="M92.316 132.242L81.2539 130.15L82.795 121.191L93.8604 123.287L92.316 132.242Z" fill="#FFEBC7"/>
<path d="M106.683 134.962L95.6211 132.867L97.1622 123.912L108.228 126.007L106.683 134.962Z" fill="#FFEBC7"/>
<path d="M121.046 137.683L109.984 135.588L111.525 126.632L122.591 128.725L121.046 137.683Z" fill="#FFEBC7"/>
<path d="M135.406 140.4L124.344 138.308L125.885 129.349L136.95 131.445L135.406 140.4Z" fill="#FFEBC7"/>
<path d="M149.765 143.12L138.703 141.025L140.244 132.07L151.31 134.165L149.765 143.12Z" fill="#FFEBC7"/>
<path d="M164.132 145.841L153.07 143.745L154.611 134.79L165.677 136.883L164.132 145.841Z" fill="#FFEBC7"/>
<path d="M75.6988 146.658L64.6367 144.562L66.1811 135.607L77.2432 137.699L75.6988 146.658Z" fill="#FFEBC7"/>
<path d="M90.066 149.375L79.0039 147.282L80.5483 138.324L91.6104 140.419L90.066 149.375Z" fill="#FFEBC7"/>
<path d="M104.425 152.095L93.3633 149.999L94.9077 141.044L105.97 143.137L104.425 152.095Z" fill="#FFEBC7"/>
<path d="M118.304 154.978L107.238 152.883L108.783 143.927L119.848 146.02L118.304 154.978Z" fill="#FFEBC7"/>
<path d="M132.179 157.53L121.117 155.434L122.662 146.479L133.724 148.574L132.179 157.53Z" fill="#FFEBC7"/>
<path d="M72.624 164.591L61.5586 162.495L63.103 153.54L74.1684 155.635L72.624 164.591Z" fill="#FFEBC7"/>
<path d="M86.9872 167.311L75.9219 165.215L77.4663 156.26L88.5316 158.352L86.9872 167.311Z" fill="#FFEBC7"/>
<path d="M101.354 170.028L90.2891 167.936L91.8335 158.977L102.899 161.073L101.354 170.028Z" fill="#FFEBC7"/>
<path d="M115.718 172.749L104.652 170.653L106.197 161.698L117.262 163.79L115.718 172.749Z" fill="#FFEBC7"/>
<path d="M130.077 175.466L119.012 173.373L120.556 164.415L131.621 166.511L130.077 175.466Z" fill="#FFEBC7"/>
<path d="M144.436 178.186L133.371 176.09L134.915 167.135L145.981 169.231L144.436 178.186Z" fill="#FFEBC7"/>
<path d="M158.804 180.907L147.738 178.811L149.283 169.856L160.348 171.948L158.804 180.907Z" fill="#FFEBC7"/>
<path d="M159.504 170.562L158.192 168.453L156.52 170.035L155.171 168.515L153.301 169.465L151.766 167.91L149.709 168.828L147.345 167.132L144.648 167.933L143.003 165.551L140.642 167.223L138.507 165.131L136.133 166.426L135.268 164.985L133.984 166.045L138.82 143.117L164.34 147.634L159.504 170.562Z" fill="#FFA800"/>
<path d="M142.066 149.964L157.18 152.639" stroke="white" stroke-miterlimit="10"/>
<path d="M141.145 155.421L149.167 156.839" stroke="white" stroke-miterlimit="10"/>
<path d="M152.763 147.487L148.332 148.552L143.719 141.341L148.153 140.276L152.763 147.487Z" fill="#6D76CC"/>
<path fill-rule="evenodd" clip-rule="evenodd" d="M18.2059 107.856C20.1911 108.601 21.7257 103.232 17.1709 102.741C13.2103 102.314 14.0854 106.639 14.1866 106.711C14.2878 106.785 18.2059 107.856 18.2059 107.856Z" fill="#3B1C17"/>
<path d="M31.8133 116.837C32.463 117.387 33.4295 117.332 33.9584 116.714L35.2383 115.22C35.7673 114.602 35.6693 113.648 35.0196 113.098C34.3698 112.548 33.4033 112.604 32.8744 113.222L31.5945 114.716C31.0655 115.334 31.1635 116.287 31.8133 116.837Z" fill="#DE5840"/>
<path d="M31.2337 115.191L23.2734 118.829L29.5261 124.081L33.6727 116.795L31.2337 115.191Z" fill="#FFD631"/>
<path d="M49.4668 131.783L48.7321 129.98L46.9755 131.162L46.0972 129.837L44.2883 130.488L43.2533 129.128L41.2942 129.743L39.567 128.21L37.0692 128.689L34.7151 129.177L33.7258 127.852L32.2728 126.014L29.9644 126.912L29.4877 125.685L28.1719 126.466L36.7786 108.129L58.0703 113.446L49.4668 131.783Z" fill="#FFA800"/>
<path d="M38.2852 113.905L50.8982 117.055" stroke="white" stroke-width="1.31" stroke-linecap="round" stroke-linejoin="round"/>
<path d="M36.4336 118.285L43.127 119.955" stroke="white" stroke-width="1.31" stroke-linecap="round" stroke-linejoin="round"/>
<path d="M16.2569 220.955C25.2353 220.955 32.5137 218.488 32.5137 215.445C32.5137 212.403 25.2353 209.936 16.2569 209.936C7.27844 209.936 0 212.403 0 215.445C0 218.488 7.27844 220.955 16.2569 220.955Z" fill="#E5DCB7"/>
<path d="M8.24712 210.076L10.8657 210.548C12.7823 210.268 13.7455 209.907 14.3659 210.613L14.5422 210.815C14.774 211.306 14.4083 212.097 13.7063 212.39L8.49526 214.622C7.47656 214.883 6.40887 214.505 6.40234 213.529C6.40234 213.529 6.40887 210.799 6.87252 210.688C7.80633 210.47 7.43738 210.285 8.25038 210.08L8.24712 210.076Z" fill="#2A3F6B"/>
<path d="M9.60866 211.41C9.5956 212.556 6.99985 212.523 7.01291 211.378L6.40234 206.741L10.2584 206.63L9.60866 211.413V211.41Z" fill="#DE5840"/>
<path d="M11.4253 207.834C9.95932 209.962 6.31875 209.927 5.53513 208.485C5.08129 199.976 2.40392 190.913 5.4633 179.215L3.60547 148.652L16.7017 146.892L14.4227 182.478L11.4286 207.831L11.4253 207.834Z" fill="#CCA321"/>
<path d="M8.51953 163.403L20.5383 165.655L21.8509 154.783L9.8321 152.534L8.51953 163.403Z" fill="#CCA321"/>
<path d="M21.2666 213.265L23.8852 213.737C25.8018 213.457 26.765 213.096 27.3854 213.802L27.5617 214.004C27.7935 214.495 27.4279 215.286 26.7259 215.579L21.5148 217.811C20.4961 218.072 19.4284 217.694 19.4219 216.718C19.4219 216.718 19.4284 213.988 19.892 213.877C20.8259 213.659 20.4569 213.474 21.2699 213.269L21.2666 213.265Z" fill="#2A3F6B"/>
<path d="M22.589 214.482C22.6281 215.787 20.0324 215.755 19.9932 214.45L19.0039 208.82L23.3759 208.397L22.5922 214.482H22.589Z" fill="#DE5840"/>
<path d="M23.6128 210.821C22.1467 212.95 18.5062 212.914 17.7225 211.472C17.2687 202.963 14.8068 194.252 17.8629 182.55L14.1016 146.71L28.8859 149.879L26.5252 187.171L23.6095 210.818L23.6128 210.821Z" fill="#CCA321"/>
<path d="M17.2664 110.303C17.6974 112.617 16.5742 113.931 14.7588 113.245C12.9434 112.555 11.9802 109.792 11.435 107.505C11.1738 106.408 11.3893 104.179 13.2047 104.869C15.02 105.559 16.8387 107.993 17.2664 110.303Z" fill="#DE5840"/>
<path d="M19.9111 109.015C20.0189 110.3 19.8393 111.299 19.0753 111.849C18.4451 112.305 17.3187 112.474 16.535 112.07C14.798 111.179 13.2308 108.553 13.0349 106.21C12.839 103.864 15.2029 102.682 16.9399 103.574C18.6769 104.466 19.7152 106.669 19.9111 109.015Z" fill="#C95836"/>
<path d="M14.4098 116.665L14.191 116.583C13.4531 116.31 12.4507 115.321 12.7152 114.527L14.0049 109.795C14.2694 109.001 15.9019 108.956 16.6398 109.229L16.8586 109.31C17.5965 109.584 18.1973 110.479 17.9328 111.273L17.159 115.793C16.8945 116.587 15.1477 116.938 14.4098 116.665Z" fill="#C95836"/>
<path d="M13.2697 112.438C13.6256 112.773 15.1112 112.952 15.4769 112.626C16.0385 112.132 16.1201 111.592 16.2605 111.025C16.5642 109.802 16.636 109.275 17.6351 108.63C19.999 107.114 19.0228 103.336 17.6873 102.887C15.8165 102.259 15.1373 102.799 13.4754 103.609C11.8004 104.426 9.30914 108.679 13.2697 112.438Z" fill="#3B1C17"/>
<path d="M2.30795 151.347C2.25245 142.391 3.70214 141.012 2.93811 133.303C2.41244 118.529 4.31924 115.623 8.76955 114.423L12.6321 113.814C13.5856 113.964 16.4882 114.432 17.4318 114.634C21.3826 115.48 25.3137 117.14 28.1935 118.64C30.7566 119.974 28.7388 122.795 28.8825 126.043C29.9991 135.532 28.8988 149.417 29.2416 154.109C28.1348 160.901 4.8939 155.792 2.30469 151.347H2.30795Z" fill="#FFD631"/>
<path d="M29.9636 126.912L25.8888 129.424C23.7404 141.188 25.5035 152.281 21.3242 157.452C24.0212 157.318 26.5059 157.474 28.2691 155.948C28.367 155.958 29.1735 155.115 29.229 153.657L29.9669 126.915L29.9636 126.912Z" fill="#FFD631"/>
<path d="M48.6928 130.049C48.9801 130.823 49.8127 131.194 50.5409 130.875L52.3007 130.098C53.0288 129.776 53.388 128.881 53.1007 128.106C52.8133 127.332 51.9808 126.961 51.2526 127.28L49.4928 128.057C48.7646 128.38 48.4055 129.274 48.6928 130.049Z" fill="#DE5840"/>
<path d="M15.9586 165.222C15.9586 165.222 15.0281 162.999 9.83984 161.886" stroke="#272B47" stroke-width="1.63" stroke-linecap="round" stroke-linejoin="round"/>
<path d="M49.3128 128.421L45.8516 130.353L47.1646 132.69L50.6258 130.758L49.3128 128.421Z" fill="#DE5840"/>
<path d="M24.5836 129.691L34.8327 139.678C36.2563 141.142 44.961 136.144 49.3492 132.405C49.7966 132.024 48.0759 129.014 46.9853 129.274L38.4537 131.494C38.4537 131.191 28.198 118.637 28.198 118.637C28.198 118.637 22.7519 124.403 24.5836 129.691Z" fill="#FFD631"/>
<path d="M26.7601 131.494L24.2852 129.274" stroke="#4B62A3" stroke-width="1.63" stroke-linecap="round" stroke-linejoin="round"/>
<path fill-rule="evenodd" clip-rule="evenodd" d="M16.1928 102.636C16.1928 102.636 11.9352 102.659 10.936 105.643C10.936 105.643 10.43 107.596 11.0699 110.092C11.0699 110.092 16.5651 110.97 18.3184 105.249C18.9943 103.046 16.1896 102.636 16.1896 102.636H16.1928Z" fill="#3B1C17"/>
<path d="M18.0132 109.102C18.0622 109.672 17.6671 110.17 17.1381 110.212C16.6059 110.254 16.1358 109.825 16.09 109.255C16.0411 108.686 16.4361 108.188 16.9651 108.146C17.4973 108.103 17.9675 108.533 18.0132 109.102Z" fill="#C95836"/>
<path d="M11.9141 110.274C11.9141 110.274 13.798 110.843 15.5089 109.353" stroke="#26120F" stroke-width="0.76" stroke-linecap="round" stroke-linejoin="round"/>
<path d="M89.3101 214.999L54.0309 208.293L53.9297 202.79L79.9328 187.444L113.175 190.373L113.184 195.469L89.3101 214.999Z" fill="#FFA800"/>
<path d="M89.3099 214.999L89.4405 209.269L83.5078 190.262L113.671 189.979L113.756 195.794L89.3099 214.999Z" fill="#D88A00"/>
<path d="M89.4407 209.269L53.9297 202.79L78.4309 184.717L113.671 189.979L89.4407 209.269Z" fill="#CC8200"/>
<path d="M89.7961 208.293L54.4287 201.515L54.3242 196.012L76.8272 184.196L113.654 184.213L113.429 189.185L89.7961 208.293Z" fill="#6D76CC"/>
<path d="M89.7927 208.293L89.8319 202.488L83.207 184.18L113.66 184.115L113.687 189.289L89.7927 208.293Z" fill="#595DAA"/>
<path d="M89.8353 202.488L54.3242 196.012L78.1332 178.638L113.664 184.115L89.8353 202.488Z" fill="#405AB3"/>
<path d="M89.8941 201.511L54.8271 194.642L54.7227 189.143L76.5236 178.037H113.595L113.563 183.487L89.8941 201.511Z" fill="#FFEA92"/>
<path d="M89.8896 201.512L89.8439 195.55L82.9023 178.021L113.588 177.942L113.558 183.487L89.8896 201.512Z" fill="#FFE164"/>
<path d="M113.592 177.942L89.8484 195.55L54.7227 189.143L77.8297 172.475" fill="#FFF5CB"/>
<path d="M100.687 187.512L113.59 177.942L109.316 177.298C98.7768 189.741 103.831 181.831 100.684 187.509L100.687 187.512Z" fill="#CCA321"/>
<path d="M100.687 187.512C100.687 187.512 110.015 180.747 110.129 173.614C106.701 175.118 92.9321 174.73 89.9805 174.366L100.687 187.512Z" fill="#FFF5CB"/>
<path d="M227.754 115.899C227.975 114.544 227.051 113.267 225.691 113.047C224.331 112.827 223.05 113.747 222.829 115.102C222.609 116.457 223.532 117.734 224.892 117.954C226.252 118.174 227.533 117.254 227.754 115.899Z" stroke="#CCA321" stroke-width="0.5" stroke-miterlimit="10"/>
<path d="M142.432 188.583C138.504 187.786 134.788 188.554 131.807 190.47L129.394 191.866L127.23 195.27C126.051 197.281 125.29 199.65 125.084 202.27C124.343 211.628 130.913 220.671 139.754 222.468C141.625 222.848 143.45 222.871 145.168 222.585L146.369 222.962L149.38 221.163C149.811 220.935 150.232 220.681 150.637 220.408L150.709 220.366C154.261 217.932 156.707 213.828 157.105 208.781C157.846 199.422 151.277 190.379 142.435 188.583H142.432Z" fill="#CCA321"/>
<path d="M146.522 222.847C154.159 218.896 156.69 208.664 152.175 199.993C147.659 191.322 137.807 187.495 130.169 191.446C122.531 195.396 120.001 205.629 124.516 214.3C129.032 222.971 138.884 226.797 146.522 222.847Z" fill="#FFD631"/>
<path d="M144.916 219.754C151.049 216.581 153.081 208.365 149.455 201.402C145.829 194.439 137.918 191.367 131.785 194.539C125.652 197.712 123.619 205.928 127.245 212.891C130.871 219.853 138.783 222.926 144.916 219.754Z" fill="white"/>
<path d="M139.897 219.923C132.795 218.478 127.522 211.218 128.116 203.705C128.495 198.908 131.176 195.169 134.914 193.471C129.853 194.385 125.955 198.664 125.491 204.525C124.897 212.038 130.17 219.298 137.271 220.743C139.838 221.264 142.293 220.954 144.409 219.988C142.982 220.248 141.461 220.239 139.897 219.923Z" fill="#FFF5CB"/>
<path d="M138.086 207.564C138.008 208.13 137.515 208.472 136.986 208.335C136.457 208.199 136.091 207.626 136.166 207.06C136.241 206.493 136.737 206.152 137.266 206.288C137.795 206.425 138.161 206.998 138.086 207.564Z" fill="#FFE36E"/>
<path d="M137.006 207.655C136.67 207.622 136.412 207.313 136.435 206.972L136.944 198.15C136.964 197.805 137.255 197.551 137.591 197.584C137.927 197.616 138.185 197.925 138.162 198.267L137.653 207.089C137.633 207.434 137.343 207.688 137.006 207.655Z" fill="#FFE36E"/>
<path d="M136.958 207.109C137.213 206.868 137.621 206.877 137.866 207.128L144.118 213.633C144.363 213.887 144.353 214.29 144.095 214.531C143.841 214.772 143.433 214.762 143.188 214.512L136.935 208.007C136.69 207.753 136.7 207.349 136.958 207.109Z" fill="#FFE36E"/>
</svg>
