<svg width="14" height="16" viewBox="0 0 14 16" fill="none" xmlns="http://www.w3.org/2000/svg">
<path d="M4.33794 1.59084C3.25194 1.88522 2.15214 2.23325 1.50122 2.44565C1.32213 2.50409 1.19637 2.65917 1.17276 2.83638C0.618885 6.99289 1.89864 10.0267 3.42564 12.0243C4.1923 13.0272 5.02182 13.7691 5.71336 14.2567C6.0594 14.5007 6.36532 14.6772 6.60571 14.7904C6.72606 14.847 6.82448 14.8852 6.89924 14.9084C6.96081 14.9274 6.99248 14.9319 7 14.933C7.00753 14.9319 7.03919 14.9274 7.10076 14.9084C7.17552 14.8852 7.27395 14.847 7.3943 14.7904C7.63468 14.6772 7.9406 14.5007 8.28664 14.2567C8.97818 13.7691 9.8077 13.0272 10.5744 12.0243C12.1014 10.0267 13.3811 6.99289 12.8272 2.83638C12.8036 2.65917 12.6779 2.50409 12.4988 2.44565C11.8479 2.23325 10.7481 1.88522 9.66206 1.59084C8.5517 1.28985 7.53085 1.06667 7 1.06667C6.46915 1.06667 5.4483 1.28985 4.33794 1.59084ZM4.07166 0.559653C5.15738 0.265343 6.31051 0 7 0C7.68949 0 8.84262 0.265343 9.92835 0.559652C11.0384 0.860567 12.1568 1.21461 12.8147 1.42928C13.3637 1.60844 13.779 2.09359 13.8588 2.6921C14.4554 7.16942 13.072 10.4869 11.394 12.682C10.5582 13.7754 9.64977 14.5904 8.87691 15.1354C8.49076 15.4077 8.13287 15.6165 7.82896 15.7596C7.54814 15.8918 7.24771 16 7 16C6.7523 16 6.45186 15.8918 6.17105 15.7596C5.86713 15.6165 5.50924 15.4077 5.12309 15.1354C4.35024 14.5904 3.44183 13.7754 2.606 12.682C0.928041 10.4869 -0.455392 7.16942 0.141232 2.69209C0.220985 2.09359 0.636253 1.60844 1.18528 1.42928C1.84316 1.21461 2.96156 0.860567 4.07166 0.559653Z" fill="#363636"/>
</svg>
